<?xml version="1.0" encoding="utf-8"?>
<!-- Generator: Adobe Illustrator 19.0.0, SVG Export Plug-In . SVG Version: 6.00 Build 0)  -->
<svg version="1.1" id="Layer_1" xmlns="http://www.w3.org/2000/svg" xmlns:xlink="http://www.w3.org/1999/xlink" x="0px" y="0px"
	 viewBox="0 0 100 100" style="enable-background:new 0 0 100 100;" xml:space="preserve">
<g id="XMLID_1_">
	<path id="XMLID_2_" d="M38.7,13.1c4.9,4.8,8.7,10.6,11.3,17.3c2.5-6.7,6.3-12.5,11.2-17.3S72.9,3.9,81.4,0v2.9
		C73,6.7,66.2,11.4,61.1,17.1S52.3,29.6,50,37.6c-2.3-8-6.1-14.9-11.1-20.5S27,6.7,18.6,2.9V0C27.1,3.9,33.8,8.3,38.7,13.1z
		 M38.7,28.2C43.7,33,47.4,38.8,50,45.5c2.5-6.7,6.3-12.5,11.2-17.3S72.9,19,81.4,15.1V18c-7.7,3.5-14,7.8-18.9,12.8
		s-8.6,11-11.2,18v21c10.1-0.2,20.1-2.6,30.1-7.2v2.9c-8.4,3.8-15.2,8.6-20.2,14.2C56.1,85.1,52.3,92,50,100
		c-2.3-8-6.1-14.9-11.1-20.5C33.8,73.9,27,69.2,18.6,65.3v-2.9c9.9,4.6,19.9,7,30,7.2V48.5c-2.6-6.9-6.3-12.9-11.1-17.9
		S26.3,21.4,18.6,18v-2.9C27.1,19,33.8,23.4,38.7,28.2z"/>
</g>
</svg>
